<svg xmlns="http://www.w3.org/2000/svg" width="123" height="82" viewBox="0 0 123 82" fill="none">
                    <path d="M66.6483 20.7677C66.8548 20.4473 67.0613 19.9199 67.4344 19.5728C70.0327 17.1563 72.3111 16.7758 75.409 18.4714C76.4816 19.0588 77.2678 19.2257 78.3404 18.5715C79.6062 17.7971 81.1118 17.5435 82.3443 18.4714C83.6035 19.4326 84.5095 19.446 85.9819 18.7451C89.1197 17.2498 92.0378 18.3312 93.63 21.4553C94.2629 22.6969 94.8559 23.1375 96.2682 23.1842C101.425 23.3778 104.909 26.0747 107.094 30.7275C109.539 35.941 111.964 41.1545 113.763 46.6351C114.216 48.0102 114.676 49.2452 116.435 49.4655C117.121 49.5523 117.787 50.1264 118.393 50.5803C123.35 54.2852 123.503 57.5895 118.86 61.6549C114.256 65.6868 109.14 68.9378 103.55 71.421C95.109 75.166 86.3949 78.1366 77.4143 80.2994C69.7395 82.1485 61.9182 82.1351 54.1101 81.7213C43.897 81.1806 33.8305 79.7186 24.217 75.9804C16.9553 73.1567 10.3864 69.2382 4.89679 63.6308C3.29788 61.9953 1.79889 60.273 0.746273 58.2237C-0.452914 55.8873 -0.21974 54.2051 1.53907 52.2558C3.118 50.5069 5.09666 49.3053 7.38178 48.9582C8.95405 48.7178 9.53365 47.85 10.0866 46.6017C12.5849 40.9343 15.2898 35.3803 18.4543 30.0466C19.287 28.6381 20.2997 27.6835 21.752 27.1094C24.3769 26.0747 26.9818 24.9132 29.8799 25.0267C31.0857 25.0734 31.5054 24.4325 32.0517 23.5314C34.5234 19.4193 38.8938 18.3579 42.8911 20.988C44.0436 21.749 44.7631 22.1362 45.909 21.0147C47.1215 19.8265 48.7671 19.4527 50.4393 19.6262C51.5252 19.7397 52.1914 19.5928 52.7177 18.458C54.0035 15.7277 56.2687 14.426 59.2999 14.653C62.2846 14.8733 64.3632 16.3886 65.3958 19.2524C65.5757 19.7597 65.6956 20.3071 66.655 20.7744L66.6483 20.7677ZM104.303 30.8677C99.9124 34.5058 94.8825 36.188 89.7327 37.5565C73.6169 41.8421 57.2413 42.8902 40.6925 41.1946C35.6227 40.6739 30.606 39.7193 25.796 37.9303C23.3976 37.0358 21.2191 35.7274 19.1805 33.8983C18.7807 34.7061 18.5742 35.0732 18.4143 35.4604C16.3091 40.5805 14.5103 45.8474 11.8921 50.7271C10.9394 52.5095 11.3591 53.4374 12.6782 54.5655C16.7821 58.0768 21.4456 60.6001 26.5155 62.3091C52.4579 71.0339 77.8874 70.3263 102.611 57.8832C105.235 56.5615 107.601 54.8325 109.826 52.8967C110.918 51.9421 111.371 50.8607 110.938 49.4321C109.06 43.1972 106.714 37.1426 104.289 30.8743L104.303 30.8677ZM114.929 52.4828C112.484 56.2544 109.16 58.6376 105.469 60.5734C94.1164 66.5413 82.1778 70.6 69.3265 71.6814C55.9089 72.8095 42.6512 72.0953 29.7133 68.07C23.5575 66.1541 17.7481 63.4773 12.8048 59.2383C10.3531 57.1423 7.94806 54.9327 8.24786 51.2412C7.80149 51.3079 7.55499 51.2812 7.3951 51.3813C2.63166 54.2585 2.33853 55.7471 5.88279 59.9259C10.2532 65.086 15.7161 68.7442 21.8919 71.3877C30.666 75.146 39.9064 76.9149 49.3334 77.8829C56.0355 78.5705 62.7509 79.0044 69.473 78.21C79.5995 77.0151 89.0398 73.4704 98.4068 69.6854C104.802 67.102 110.532 63.4038 115.835 59.0181C119.606 55.9006 119.532 55.3065 114.936 52.4761L114.929 52.4828ZM52.1315 37.6633C56.9415 37.937 61.3119 37.5098 65.6823 37.3429C66.142 37.3228 66.5683 37.1359 66.6083 36.6486C66.6483 36.2014 66.3352 35.8342 65.9221 35.6473C64.1633 34.8396 62.2846 34.3055 60.6457 33.2308C59.8329 32.7034 59.0268 32.136 58.1407 31.7555C55.8889 30.7809 54.4299 31.4685 53.9169 33.8917C53.6504 35.16 52.8976 36.1813 52.1381 37.6566L52.1315 37.6633ZM42.9843 25.0934C42.9244 24.9065 42.8644 24.5861 42.7378 24.2857C42.0583 22.6702 39.7598 21.6155 37.7945 21.996C35.5627 22.4299 33.4908 24.5193 33.5174 26.3083C33.5374 27.8036 34.3435 28.4044 36.0024 28.0173C37.3015 27.7102 38.5407 27.7035 39.8465 28.0039C41.6652 28.4178 43.0776 27.1161 42.991 25.0934H42.9843ZM62.5511 31.1747C63.1307 29.6928 63.7902 28.1841 65.176 27.2095C66.0354 26.6021 65.8955 25.9479 65.3292 25.3003C64.7629 24.6528 64.19 23.9586 63.4838 23.4913C61.7116 22.3164 59.1867 22.9172 58.0341 24.6795C56.8749 26.4552 57.4878 28.805 59.4865 29.8997C60.4192 30.4137 61.2786 31.1347 62.5577 31.1747H62.5511ZM32.2383 35.8809C34.4768 36.2347 36.3621 36.6887 38.2609 36.7821C40.566 36.8956 42.3314 34.5325 41.4121 32.7835C40.4927 31.0346 38.8138 30.5473 37.055 30.6007C35.4294 30.6541 33.8372 30.9945 33.5174 33.1373C33.3975 33.925 32.8312 34.646 32.2316 35.8743L32.2383 35.8809ZM74.7095 28.7516C75.4557 27.9305 75.0426 27.0827 75.3757 26.4418C76.5149 24.2189 75.0826 22.7303 73.8234 21.3151C72.6909 20.0534 71.1519 20.0534 69.6662 20.7477C68.1273 21.462 67.0613 23.1509 67.1813 24.5861C67.2346 25.2603 67.4078 25.9412 68.2539 25.8945C70.8854 25.7543 73.044 26.7289 74.7162 28.7516H74.7095ZM45.5626 26.2282C47.8077 26.4752 50.0262 26.7422 51.8317 28.3777C52.5512 29.0319 52.7844 30.9211 54.5098 29.813C56.0222 28.845 54.4899 27.6635 54.7564 26.6087C54.783 26.5086 54.7563 26.3884 54.7297 26.2883C54.1501 24.259 51.3653 22.1028 49.4266 22.1629C47.3081 22.2296 46.1755 23.3912 45.5692 26.2282H45.5626ZM43.7904 37.6833C45.8291 36.6953 47.2747 36.0679 48.6472 35.3069C50.9989 34.0185 51.1388 31.8957 49.0535 30.1801C47.3414 28.7716 45.6492 28.6915 43.4507 29.9598C45.0563 32.2028 45.2628 34.6326 43.7838 37.6833H43.7904ZM69.7129 36.8422C71.0986 35.6206 71.6116 34.4324 72.0846 33.2775C73.1372 30.7208 71.6716 28.7115 68.9001 28.7983C66.8482 28.865 65.8355 29.7863 65.0694 32.3763C67.128 33.164 69.493 33.6513 69.7062 36.8422H69.7129ZM91.3182 27.0093C91.5181 26.315 91.6913 25.9145 91.7313 25.5006C91.9645 23.0173 91.0118 21.3418 89.1797 20.9413C87.3876 20.5474 85.4622 21.7023 84.6028 23.6916C83.8633 25.4005 84.5362 26.5687 86.3283 26.315C87.9805 26.0814 89.4995 26.2416 91.3116 27.0093H91.3182ZM93.5967 31.9424C95.9285 31.2549 98.067 30.3136 100.012 28.9652C100.878 28.3644 101.092 27.5767 100.052 26.9158C98.6866 26.0413 95.1756 26.3551 93.8565 27.3964C92.1444 28.7449 92.9771 30.2402 93.5967 31.9424ZM55.2227 23.7183C57.3013 20.8011 60.1993 20.3605 63.4305 20.3538C60.7323 17.2898 58.9468 16.6556 56.8416 17.7838C54.8363 18.8652 54.2234 20.721 55.2227 23.7183ZM90.5388 32.096C90.1457 31.1213 89.8926 29.9932 88.7666 29.566C87.4076 29.052 86.2217 29.5793 85.2624 30.4938C84.4296 31.2949 83.5235 32.1627 83.9366 33.5445C84.1564 34.2655 84.6028 34.5859 85.3823 34.3723C86.828 33.9851 88.287 33.6647 89.7193 33.2508C90.219 33.104 90.6987 32.7969 90.5388 32.096ZM31.3988 35.2C31.4122 33.9851 31.6786 32.7168 31.0857 31.4885C30.4795 30.2335 29.5401 29.3256 28.0678 29.4925C26.4022 29.6794 26.249 31.088 26.0625 32.3897C25.8426 33.9651 26.8819 34.5125 28.1144 34.7595C29.1337 34.9664 30.0864 35.6807 31.3988 35.1934V35.2ZM81.4849 35.1533C81.1252 34.3589 81.0119 33.9384 80.7654 33.6113C79.7194 32.2295 78.2804 31.5018 76.5816 31.6621C74.9427 31.8223 75.5489 33.5445 74.956 34.4657C74.6562 34.9263 74.0499 35.4137 74.6162 36.208C76.8281 36.2881 78.9733 35.694 81.4782 35.1466L81.4849 35.1533ZM79.7594 25.2736C78.4936 25.2603 77.3211 26.3818 77.0612 27.7369C76.7681 29.2856 77.914 29.1054 78.8334 29.2989C79.6661 29.4725 80.4922 29.7395 81.2651 30.08C82.0512 30.4271 82.5175 30.1 82.8307 29.4792C83.1371 28.8584 84.0831 28.2642 83.4502 27.5166C82.4776 26.3484 81.1318 25.6541 79.7527 25.2803L79.7594 25.2736ZM82.7974 20.494C81.5116 20.494 80.2458 20.4807 78.9799 20.5007C78.5069 20.5074 78.1072 20.7811 78.1538 21.2684C78.1871 21.6622 78.387 22.2964 78.6402 22.3698C79.6462 22.6569 80.7521 23.0307 81.7314 22.8571C82.5375 22.7169 82.824 21.6622 82.7974 20.494ZM24.77 29.092C23.2444 28.9985 21.6721 29.0453 21.4856 30.5206C21.319 31.8556 22.7713 32.5165 24.2304 33.0372C24.4236 31.6554 24.5835 30.4538 24.77 29.0987V29.092Z" fill="#F8F7FF"></path>
                    <path d="M41.6318 15.9882C38.5406 15.9549 35.969 13.9255 35.5426 11.1819C35.0229 7.85754 37.7078 5.08056 42.0049 4.50647C45.1428 4.08591 48.1074 6.46905 48.3472 9.60651C48.6137 13.0644 45.4892 16.0283 41.6385 15.9882H41.6318ZM41.7584 12.9109C43.7504 12.8975 45.316 11.5424 45.2627 9.88021C45.2094 8.29145 43.777 7.12992 41.8783 7.13659C39.5799 7.14327 38.1542 8.19799 38.2075 9.8535C38.2607 11.5357 39.8797 12.9309 41.7584 12.9175V12.9109Z" fill="#F8F7FF"></path>
                    <path d="M73.0107 0.100586C75.7888 0.147314 78.0073 2.67731 78.0206 5.82145C78.034 9.36611 75.4157 11.9962 71.8915 11.9695C68.567 11.9428 65.9088 9.45957 65.9288 6.38886C65.9488 3.18464 69.4931 0.0471823 73.0107 0.107261V0.100586ZM72.058 2.65061C70.1393 2.66396 68.2672 4.50638 68.2672 6.36884C68.2672 7.97762 69.7063 9.32606 71.4784 9.37947C73.537 9.44622 75.2359 7.74398 75.1559 5.70129C75.0893 3.9323 73.7702 2.63058 72.0513 2.65061H72.058Z" fill="#F8F7FF"></path>
                    <path d="M51.7784 47.7233C54.4566 47.8769 56.9416 48.8381 59.2933 50.28C61.3986 51.5751 61.4452 51.5617 63.1641 49.8261C65.256 47.7033 67.7609 46.6019 70.7323 46.722C73.637 46.8355 75.2758 48.6913 75.1226 51.6151C75.016 53.6445 74.13 55.3801 72.9508 56.9555C69.9395 60.9741 65.729 63.0502 60.9589 64.1249C60.346 64.2651 59.5931 64.3118 59.0402 64.0782C54.5699 62.1757 50.5726 59.6991 48.4407 55.033C47.9344 53.9182 47.6945 52.77 47.7612 51.5617C47.9011 49.1319 49.2868 47.7901 51.7851 47.73L51.7784 47.7233Z" fill="#F8F7FF"></path>
                </svg>