<svg xmlns="http://www.w3.org/2000/svg" width="64" height="65" viewBox="0 0 64 65" fill="none">
                            <path d="M32.0001 20.6957C29.6267 20.6957 27.3067 21.3995 25.3333 22.718C23.3599 24.0366 21.8218 25.9108 20.9136 28.1035C20.0053 30.2962 19.7677 32.709 20.2307 35.0368C20.6937 37.3645 21.8366 39.5027 23.5148 41.181C25.1931 42.8592 27.3313 44.0021 29.659 44.4651C31.9868 44.9281 34.3996 44.6905 36.5923 43.7822C38.785 42.874 40.6592 41.3359 41.9777 39.3625C43.2963 37.3891 44.0001 35.069 44.0001 32.6957C43.9968 29.5141 42.7315 26.4638 40.4817 24.214C38.232 21.9643 35.1817 20.699 32.0001 20.6957ZM32.0001 40.6957C30.4179 40.6957 28.8711 40.2265 27.5556 39.3474C26.24 38.4684 25.2146 37.2189 24.6091 35.7571C24.0036 34.2953 23.8451 32.6868 24.1538 31.1349C24.4625 29.5831 25.2244 28.1576 26.3433 27.0388C27.4621 25.92 28.8875 25.1581 30.4394 24.8494C31.9912 24.5407 33.5998 24.6991 35.0616 25.3046C36.5234 25.9101 37.7728 26.9355 38.6519 28.2511C39.5309 29.5667 40.0001 31.1134 40.0001 32.6957C40.0001 34.8174 39.1573 36.8522 37.657 38.3525C36.1567 39.8528 34.1218 40.6957 32.0001 40.6957ZM54.0001 33.2357C54.0101 32.8757 54.0101 32.5157 54.0001 32.1557L57.7301 27.4957C57.9257 27.251 58.0611 26.9638 58.1253 26.6572C58.1896 26.3507 58.181 26.0333 58.1001 25.7307C57.4886 23.4322 56.5739 21.2253 55.3801 19.1682C55.2238 18.899 55.0068 18.67 54.7464 18.4994C54.486 18.3288 54.1894 18.2214 53.8801 18.1857L47.9501 17.5257C47.7034 17.2657 47.4534 17.0157 47.2001 16.7757L46.5001 10.8307C46.4641 10.5212 46.3563 10.2244 46.1853 9.964C46.0143 9.70357 45.7848 9.4867 45.5151 9.33067C43.4572 8.13904 41.2505 7.22526 38.9526 6.61317C38.6498 6.53266 38.3323 6.52443 38.0257 6.58913C37.7192 6.65383 37.4321 6.78966 37.1876 6.98567L32.5401 10.6957H31.4601L26.8001 6.97317C26.5554 6.77759 26.2683 6.64222 25.9617 6.57795C25.6551 6.51368 25.3377 6.52232 25.0351 6.60317C22.737 7.21574 20.5303 8.13038 18.4726 9.32317C18.2034 9.47949 17.9744 9.69648 17.8038 9.95689C17.6333 10.2173 17.5258 10.5139 17.4901 10.8232L16.8301 16.7632C16.5701 17.0115 16.3201 17.2615 16.0801 17.5132L10.1351 18.1957C9.82564 18.2317 9.52887 18.3395 9.26844 18.5105C9.00801 18.6815 8.79114 18.911 8.63511 19.1807C7.44348 21.2386 6.5297 23.4453 5.91761 25.7432C5.83711 26.046 5.82887 26.3635 5.89357 26.67C5.95828 26.9766 6.09411 27.2637 6.29011 27.5082L10.0001 32.1557V33.2357L6.27761 37.8957C6.08203 38.1403 5.94666 38.4275 5.88239 38.7341C5.81813 39.0407 5.82676 39.3581 5.90761 39.6607C6.51909 41.9592 7.43379 44.166 8.62761 46.2232C8.78393 46.4924 9.00093 46.7214 9.26134 46.8919C9.52174 47.0625 9.81837 47.1699 10.1276 47.2057L16.0576 47.8657C16.3059 48.1257 16.5559 48.3757 16.8076 48.6157L17.5001 54.5607C17.5361 54.8701 17.6439 55.1669 17.8149 55.4273C17.986 55.6878 18.2154 55.9046 18.4851 56.0607C20.543 57.2523 22.7497 58.1661 25.0476 58.7782C25.3504 58.8587 25.6679 58.8669 25.9745 58.8022C26.2811 58.7375 26.5682 58.6017 26.8126 58.4057L31.4601 54.6957C31.8201 54.7057 32.1801 54.7057 32.5401 54.6957L37.2001 58.4257C37.4448 58.6212 37.732 58.7566 38.0385 58.8209C38.3451 58.8852 38.6625 58.8765 38.9651 58.7957C41.2636 58.1842 43.4705 57.2695 45.5276 56.0757C45.7968 55.9194 46.0258 55.7024 46.1964 55.4419C46.367 55.1815 46.4744 54.8849 46.5101 54.5757L47.1701 48.6457C47.4301 48.399 47.6801 48.149 47.9201 47.8957L53.8651 47.1957C54.1746 47.1597 54.4714 47.0519 54.7318 46.8808C54.9922 46.7098 55.2091 46.4803 55.3651 46.2107C56.5567 44.1528 57.4705 41.9461 58.0826 39.6482C58.1631 39.3454 58.1714 39.0279 58.1067 38.7213C58.042 38.4147 57.9061 38.1276 57.7101 37.8832L54.0001 33.2357ZM49.9751 31.6107C50.0176 32.3334 50.0176 33.058 49.9751 33.7807C49.9453 34.2755 50.1003 34.7637 50.4101 35.1507L53.9576 39.5832C53.5505 40.8768 53.0293 42.1318 52.4001 43.3332L46.7501 43.9732C46.2581 44.0278 45.8038 44.263 45.4751 44.6332C44.9939 45.1744 44.4813 45.6869 43.9401 46.1682C43.5699 46.4968 43.3347 46.9511 43.2801 47.4432L42.6526 53.0882C41.4514 53.7177 40.1964 54.2389 38.9026 54.6457L34.4676 51.0982C34.1127 50.8146 33.6719 50.6603 33.2176 50.6607H33.0976C32.3749 50.7032 31.6503 50.7032 30.9276 50.6607C30.4328 50.6309 29.9446 50.7859 29.5576 51.0957L25.1126 54.6457C23.8189 54.2386 22.564 53.7174 21.3626 53.0882L20.7226 47.4457C20.668 46.9536 20.4328 46.4993 20.0626 46.1707C19.5214 45.6894 19.0088 45.1769 18.5276 44.6357C18.1989 44.2654 17.7447 44.0303 17.2526 43.9757L11.6076 43.3457C10.9781 42.1444 10.4569 40.8895 10.0501 39.5957L13.5976 35.1607C13.9074 34.7737 14.0624 34.2855 14.0326 33.7907C13.9901 33.068 13.9901 32.3434 14.0326 31.6207C14.0624 31.1259 13.9074 30.6377 13.5976 30.2507L10.0501 25.8082C10.4572 24.5145 10.9784 23.2596 11.6076 22.0582L17.2501 21.4182C17.7422 21.3636 18.1964 21.1284 18.5251 20.7582C19.0063 20.2169 19.5189 19.7044 20.0601 19.2232C20.4318 18.8943 20.6679 18.439 20.7226 17.9457L21.3501 12.3032C22.5514 11.6737 23.8063 11.1524 25.1001 10.7457L29.5351 14.2932C29.9221 14.6029 30.4103 14.758 30.9051 14.7282C31.6278 14.6857 32.3524 14.6857 33.0751 14.7282C33.5699 14.758 34.0581 14.6029 34.4451 14.2932L38.8876 10.7457C40.1813 11.1527 41.4362 11.6739 42.6376 12.3032L43.2776 17.9457C43.3322 18.4377 43.5674 18.892 43.9376 19.2207C44.4788 19.7019 44.9914 20.2144 45.4726 20.7557C45.8013 21.1259 46.2556 21.3611 46.7476 21.4157L52.3926 22.0432C53.0221 23.2444 53.5434 24.4994 53.9501 25.7932L50.4026 30.2282C50.0899 30.6184 49.9347 31.1117 49.9676 31.6107H49.9751Z" fill="#F8F7FF"></path>
                        </svg>