<svg xmlns="http://www.w3.org/2000/svg" width="24" height="25" viewBox="0 0 24 25" fill="none">
                            <path d="M6.25 5.69556C5.56 5.69556 5 6.25556 5 6.94556V18.4456C5 19.1356 5.56 19.6956 6.25 19.6956H17.75C18.44 19.6956 19 19.1356 19 18.4456V14.6956C19 14.4303 19.1054 14.176 19.2929 13.9885C19.4804 13.8009 19.7348 13.6956 20 13.6956C20.2652 13.6956 20.5196 13.8009 20.7071 13.9885C20.8946 14.176 21 14.4303 21 14.6956V18.4456C21 19.3075 20.6576 20.1342 20.0481 20.7437C19.4386 21.3531 18.612 21.6956 17.75 21.6956H6.25C5.38805 21.6956 4.5614 21.3531 3.9519 20.7437C3.34241 20.1342 3 19.3075 3 18.4456V6.94556C3 6.0836 3.34241 5.25695 3.9519 4.64746C4.5614 4.03797 5.38805 3.69556 6.25 3.69556H10C10.2652 3.69556 10.5196 3.80091 10.7071 3.98845C10.8946 4.17599 11 4.43034 11 4.69556C11 4.96077 10.8946 5.21513 10.7071 5.40266C10.5196 5.5902 10.2652 5.69556 10 5.69556H6.25ZM14 5.69556C13.7348 5.69556 13.4804 5.5902 13.2929 5.40266C13.1054 5.21513 13 4.96077 13 4.69556C13 4.43034 13.1054 4.17599 13.2929 3.98845C13.4804 3.80091 13.7348 3.69556 14 3.69556H20C20.2652 3.69556 20.5196 3.80091 20.7071 3.98845C20.8946 4.17599 21 4.43034 21 4.69556V10.6956C21 10.9608 20.8946 11.2151 20.7071 11.4027C20.5196 11.5902 20.2652 11.6956 20 11.6956C19.7348 11.6956 19.4804 11.5902 19.2929 11.4027C19.1054 11.2151 19 10.9608 19 10.6956V7.10956L14.707 11.4026C14.5184 11.5847 14.2658 11.6855 14.0036 11.6832C13.7414 11.681 13.4906 11.5758 13.3052 11.3904C13.1198 11.205 13.0146 10.9542 13.0123 10.692C13.01 10.4298 13.1108 10.1772 13.293 9.98856L17.586 5.69556H14Z" fill="#F8F7FF"></path>
                        </svg>