<svg xmlns="http://www.w3.org/2000/svg" width="64" height="65" viewBox="0 0 64 65" fill="none">
                            <path d="M31.9999 30.0288C35.5361 30.0288 38.9275 31.4336 41.428 33.934C43.9285 36.4345 45.3332 39.8259 45.3332 43.3621V59.3621H39.9999V43.3621C40 41.3216 39.2204 39.3581 37.8205 37.8734C36.4206 36.3888 34.5063 35.4952 32.4692 35.3755L31.9999 35.3621C29.9594 35.362 27.9959 36.1417 26.5112 37.5416C25.0266 38.9415 24.133 40.8558 24.0133 42.8928L23.9999 43.3621V59.3621H18.6666V43.3621C18.6666 39.8259 20.0713 36.4345 22.5718 33.934C25.0723 31.4336 28.4637 30.0288 31.9999 30.0288ZM14.6666 38.0288C15.4106 38.0288 16.1333 38.1168 16.8266 38.2795C16.3707 39.6368 16.1007 41.0497 16.0239 42.4795L15.9999 43.3621V43.5915C15.6934 43.4818 15.3746 43.4102 15.0506 43.3781L14.6666 43.3621C13.6726 43.3621 12.7143 43.7322 11.9783 44.4001C11.2423 45.0681 10.7813 45.9862 10.6853 46.9755L10.6666 47.3621V59.3621H5.33325V47.3621C5.33325 44.8868 6.31658 42.5128 8.06692 40.7625C9.81726 39.0121 12.1912 38.0288 14.6666 38.0288ZM49.3332 38.0288C51.8086 38.0288 54.1826 39.0121 55.9329 40.7625C57.6833 42.5128 58.6666 44.8868 58.6666 47.3621V59.3621H53.3332V47.3621C53.3333 46.3682 52.9632 45.4099 52.2953 44.6739C51.6273 43.9378 50.7092 43.4769 49.7199 43.3808L49.3332 43.3621C48.8666 43.3621 48.4186 43.4421 47.9999 43.5888V43.3621C47.9999 41.5861 47.7119 39.8795 47.1786 38.2848C47.8666 38.1168 48.5919 38.0288 49.3332 38.0288ZM14.6666 22.0288C16.4347 22.0288 18.1304 22.7312 19.3806 23.9814C20.6309 25.2317 21.3333 26.9274 21.3333 28.6955C21.3333 30.4636 20.6309 32.1593 19.3806 33.4095C18.1304 34.6598 16.4347 35.3621 14.6666 35.3621C12.8985 35.3621 11.2028 34.6598 9.95254 33.4095C8.7023 32.1593 7.99992 30.4636 7.99992 28.6955C7.99992 26.9274 8.7023 25.2317 9.95254 23.9814C11.2028 22.7312 12.8985 22.0288 14.6666 22.0288ZM49.3332 22.0288C51.1014 22.0288 52.7971 22.7312 54.0473 23.9814C55.2975 25.2317 55.9999 26.9274 55.9999 28.6955C55.9999 30.4636 55.2975 32.1593 54.0473 33.4095C52.7971 34.6598 51.1014 35.3621 49.3332 35.3621C47.5651 35.3621 45.8694 34.6598 44.6192 33.4095C43.369 32.1593 42.6666 30.4636 42.6666 28.6955C42.6666 26.9274 43.369 25.2317 44.6192 23.9814C45.8694 22.7312 47.5651 22.0288 49.3332 22.0288ZM14.6666 27.3621C14.313 27.3621 13.9738 27.5026 13.7238 27.7527C13.4737 28.0027 13.3333 28.3419 13.3333 28.6955C13.3333 29.0491 13.4737 29.3882 13.7238 29.6383C13.9738 29.8883 14.313 30.0288 14.6666 30.0288C15.0202 30.0288 15.3593 29.8883 15.6094 29.6383C15.8594 29.3882 15.9999 29.0491 15.9999 28.6955C15.9999 28.3419 15.8594 28.0027 15.6094 27.7527C15.3593 27.5026 15.0202 27.3621 14.6666 27.3621ZM49.3332 27.3621C48.9796 27.3621 48.6405 27.5026 48.3904 27.7527C48.1404 28.0027 47.9999 28.3419 47.9999 28.6955C47.9999 29.0491 48.1404 29.3882 48.3904 29.6383C48.6405 29.8883 48.9796 30.0288 49.3332 30.0288C49.6869 30.0288 50.026 29.8883 50.2761 29.6383C50.5261 29.3882 50.6666 29.0491 50.6666 28.6955C50.6666 28.3419 50.5261 28.0027 50.2761 27.7527C50.026 27.5026 49.6869 27.3621 49.3332 27.3621ZM31.9999 6.02881C34.8289 6.02881 37.542 7.15261 39.5424 9.153C41.5428 11.1534 42.6666 13.8665 42.6666 16.6955C42.6666 19.5245 41.5428 22.2376 39.5424 24.2379C37.542 26.2383 34.8289 27.3621 31.9999 27.3621C29.1709 27.3621 26.4578 26.2383 24.4574 24.2379C22.4571 22.2376 21.3333 19.5245 21.3333 16.6955C21.3333 13.8665 22.4571 11.1534 24.4574 9.153C26.4578 7.15261 29.1709 6.02881 31.9999 6.02881ZM31.9999 11.3621C30.5854 11.3621 29.2289 11.924 28.2287 12.9242C27.2285 13.9244 26.6666 15.281 26.6666 16.6955C26.6666 18.11 27.2285 19.4665 28.2287 20.4667C29.2289 21.4669 30.5854 22.0288 31.9999 22.0288C33.4144 22.0288 34.771 21.4669 35.7712 20.4667C36.7713 19.4665 37.3333 18.11 37.3333 16.6955C37.3333 15.281 36.7713 13.9244 35.7712 12.9242C34.771 11.924 33.4144 11.3621 31.9999 11.3621Z" fill="#F8F7FF"></path>
                        </svg>